<svg width="28" height="28" viewBox="0 0 28 28" fill="none" xmlns="http://www.w3.org/2000/svg">
<g clip-path="url(#clip0_4309_129333)">
<path d="M19.6583 7.99167L21.3384 9.67167L15.645 15.365L11.8067 11.5267C11.3517 11.0717 10.6167 11.0717 10.1617 11.5267L3.16168 18.5383C2.70668 18.9933 2.70668 19.7283 3.16168 20.1833C3.61668 20.6383 4.35168 20.6383 4.80668 20.1833L10.9784 14L14.8167 17.8383C15.2717 18.2933 16.0067 18.2933 16.4617 17.8383L22.9834 11.3283L24.6634 13.0083C25.025 13.37 25.655 13.1133 25.655 12.6V7.58333C25.6667 7.25667 25.41 7 25.0834 7H20.0783C19.5533 7 19.2967 7.63 19.6583 7.99167Z" fill="#C4170C"/>
</g>
<defs>
<clipPath id="clip0_4309_129333">
<rect width="28" height="28" rx="6" fill="white"/>
</clipPath>
</defs>
</svg>
