<?xml version="1.0" encoding="UTF-8"?>
<svg version="1.1" xmlns="http://www.w3.org/2000/svg" width="1099" height="710">
<path d="M0 0 C0.66 0 1.32 0 2 0 C2.15855469 1.1859375 2.31710938 2.371875 2.48046875 3.59375 C6.76194867 33.99383732 18.2791233 52.83658954 42 72 C59.27067138 86.0338655 76.63772258 100.96600418 91.16796875 117.890625 C93.15311587 120.17629546 95.2003983 122.39701378 97.25 124.625 C102.34577707 130.2744778 107.00249548 136.22851961 111.64453125 142.25048828 C112.91797093 143.89412458 114.20589608 145.52495671 115.5 147.15234375 C136.26040483 173.53535822 178 227.40645241 178 263 C179.02738281 262.28714844 180.05476563 261.57429688 181.11328125 260.83984375 C184.71505277 258.34537067 188.33196278 255.87366793 191.95263672 253.40673828 C193.70142301 252.20515152 195.43270578 250.97815669 197.16015625 249.74609375 C198.05605469 249.12863281 198.95195312 248.51117188 199.875 247.875 C200.63554687 247.33617187 201.39609375 246.79734375 202.1796875 246.2421875 C211.24574449 242.24910423 221.70475913 244.4561021 231.21875 245.58203125 C232.76900731 245.75870242 234.31934259 245.93469068 235.86975098 246.11003113 C239.09790769 246.47748916 242.32509571 246.85231304 245.55175781 247.23266602 C249.69080196 247.72007609 253.83161141 248.19000886 257.97325897 248.65471363 C261.16523521 249.01456305 264.35619017 249.3828713 267.54689026 249.75385094 C269.07446447 249.93054714 270.60232979 250.10474512 272.13047791 250.27640724 C274.25670485 250.51666351 276.38130818 250.76811116 278.50585938 251.02270508 C279.71479858 251.1633992 280.92373779 251.30409332 282.16931152 251.4490509 C285 252 285 252 287 254 C278.27545119 260.8994451 269.49430061 267.71892482 260.64453125 274.45703125 C257.29887676 277.00448023 253.96547211 279.56722771 250.63671875 282.13671875 C248.79949887 283.54950479 246.96225957 284.96226557 245.125 286.375 C243.86030884 287.35569458 243.86030884 287.35569458 242.57006836 288.35620117 C227.78896457 299.69285593 219.91818587 302.70909127 201.4375 301.0625 C200.23802734 300.96259766 199.03855469 300.86269531 197.80273438 300.75976562 C194.8677463 300.51420885 191.93366814 300.26077759 189 300 C189.176521 301.29397705 189.35304199 302.5879541 189.53491211 303.92114258 C190.20057741 308.81626996 190.85595205 313.71273337 191.50854492 318.60961914 C191.79000812 320.71122172 192.0740999 322.81247428 192.36108398 324.91333008 C195.08491248 344.87694171 196.23584763 364.54868241 196.25 384.6875 C196.25067474 385.56918854 196.25134949 386.45087708 196.25204468 387.35928345 C196.19340073 436.20968827 186.30469823 483.26004361 170.85546875 529.4296875 C170.58385925 530.2417868 170.31224976 531.05388611 170.03240967 531.89059448 C168.68040929 535.92813879 167.32110643 539.96298657 165.94873047 543.99365234 C165.44628073 545.48014041 164.94383896 546.96663117 164.44140625 548.453125 C164.20947067 549.12705292 163.9775351 549.80098083 163.73857117 550.49533081 C158.58660769 565.7937387 160.08562669 581.78351585 166.5078125 596.44140625 C170.0103775 603.34064474 174.1930133 609.05814372 179.27734375 614.85546875 C181 617 181 617 181 619 C175.91821832 617.21311335 171.39816534 614.49256623 166.75 611.8125 C165.82960938 611.28422607 164.90921875 610.75595215 163.9609375 610.21166992 C155.87712025 605.55006518 147.87652747 600.75394 139.88623047 595.93432617 C131.58624779 590.93338022 123.24049085 586.01516268 114.875 581.125 C105.2135039 575.47658557 95.57041784 569.80175589 86 564 C87.95884925 557.55308144 90.50216878 551.64899397 93.5 545.625 C122.36336593 486.09932714 147.01831218 404.0485808 126.25 338 C123.83942316 331.75274171 120.16880565 328.6212494 114.3125 325.625 C93.34555828 321.66897326 69.67247113 331.9689027 49.52262497 337.51140594 C45.30769075 338.66975847 41.09136849 339.8230392 36.87524414 340.97705078 C26.85011817 343.7222256 16.82720656 346.47543583 6.80451965 349.22949982 C2.15468106 350.50697401 -2.49541877 351.78349643 -7.14550781 353.06005859 C-29.80228054 359.28018991 -29.80228054 359.28018991 -52.45605469 365.51123047 C-71.01765304 370.62050213 -89.58423286 375.70986963 -108.16591835 380.74565887 C-114.02753616 382.33501326 -119.88802281 383.92853544 -125.74856091 385.52186584 C-131.29899873 387.03020967 -136.85138895 388.53107574 -142.40535355 390.02637768 C-145.82050805 390.94770705 -149.23373579 391.87601923 -152.64648056 392.80623055 C-154.21908642 393.2332942 -155.7924938 393.65741944 -157.36676407 394.0783062 C-171.91488526 397.277877 -171.91488526 397.277877 -182.5 406.75 C-182.9846875 407.54921875 -183.469375 408.3484375 -183.96875 409.171875 C-184.47921875 410.07679688 -184.47921875 410.07679688 -185 411 C-193.65254336 406.83094142 -202.17230249 402.47732155 -210.5 397.6875 C-211.24757568 397.26742676 -211.99515137 396.84735352 -212.76538086 396.41455078 C-214.56375975 395.36294381 -216.29073287 394.19098687 -218 393 C-218 392.01 -218 391.02 -218 390 C-215.71875 387.9765625 -215.71875 387.9765625 -212.5 385.625 C-211.31083493 384.74182088 -210.12341728 383.85628542 -208.9375 382.96875 C-208.30199219 382.494375 -207.66648438 382.02 -207.01171875 381.53125 C-203.44038172 378.81287308 -199.97344593 375.96669082 -196.5 373.125 C-195.83033203 372.5779541 -195.16066406 372.0309082 -194.47070312 371.46728516 C-193.20483796 370.43311283 -191.94399248 369.39275676 -190.68896484 368.34545898 C-189 367 -189 367 -186.2578125 365.29296875 C-182.62882967 361.60747927 -181.77522223 357.07993414 -180.375 352.1875 C-179.68395526 349.91406296 -178.98843299 347.64198339 -178.2890625 345.37109375 C-177.92071289 344.16952637 -177.55236328 342.96795898 -177.17285156 341.72998047 C-156.21906893 275.09136867 -124.29071155 202.87406156 -76.1953125 151.37109375 C-74.3558445 149.38433739 -72.58607429 147.36397469 -70.8203125 145.3125 C-60.62632035 133.62978801 -49.4214093 122.31134476 -37 113 C-35.90224886 112.16939623 -34.80459791 111.33866002 -33.70703125 110.5078125 C-31.59085951 108.91108428 -29.46665136 107.32749509 -27.3359375 105.75 C-25.15534055 104.20265764 -25.15534055 104.20265764 -24 103 C-30.6 98.71 -37.2 94.42 -44 90 C-43.21718557 86.86874226 -42.48030352 84.71354249 -41.06640625 81.90234375 C-40.47158447 80.71463379 -40.47158447 80.71463379 -39.86474609 79.50292969 C-39.43500488 78.65633789 -39.00526367 77.80974609 -38.5625 76.9375 C-38.11729004 76.05352539 -37.67208008 75.16955078 -37.21337891 74.25878906 C-34.16138053 68.22344887 -31.03726764 62.22816238 -27.875 56.25 C-18.08740709 37.74544934 -9.09244784 18.85262232 0 0 Z M1.26953125 127.25390625 C0.55772705 127.77138428 -0.15407715 128.2888623 -0.88745117 128.82202148 C-1.64646729 129.39637939 -2.4054834 129.9707373 -3.1875 130.5625 C-4.379198 131.44627319 -4.379198 131.44627319 -5.5949707 132.34790039 C-23.86346805 146.0253239 -40.35354156 161.29125341 -56.5 177.375 C-57.43223389 178.30248047 -58.36446777 179.22996094 -59.32495117 180.18554688 C-64.42379672 185.2968118 -69.32831205 190.49630523 -74 196 C-74.85722656 196.98742187 -75.71445313 197.97484375 -76.59765625 198.9921875 C-114.68405645 243.53697885 -148.67534445 295.10170649 -169.8125 349.9375 C-170.15635742 350.82574463 -170.50021484 351.71398926 -170.85449219 352.62915039 C-172.05256868 355.77606399 -172.05256868 355.77606399 -173 359 C-172.67 359.66 -172.34 360.32 -172 361 C-137.21925079 351.48510889 -102.43848555 341.9701976 -67.66796875 332.41796875 C-66.85787983 332.19542734 -66.04779091 331.97288593 -65.21315384 331.74360085 C-56.29079255 329.29226068 -47.36932336 326.83771336 -38.44921875 324.37817383 C-35.15758329 323.47075263 -31.86590969 322.56346991 -28.57421875 321.65625 C-27.34701174 321.31795701 -27.34701174 321.31795701 -26.09501266 320.97282982 C-14.1602207 317.68382823 -2.21778984 314.42371831 9.72917175 311.17921448 C16.73459526 309.27633296 23.73769784 307.3649734 30.74024296 305.4515295 C35.55576098 304.13626588 40.37238758 302.82543391 45.19204712 301.52542114 C49.69670263 300.31037234 54.19805796 299.08376378 58.69730568 297.84884644 C60.34054588 297.40002296 61.98492088 296.95532745 63.63055992 296.51538086 C71.9011733 294.30196423 79.90530127 291.8356294 87.77539062 288.43920898 C88.42517632 288.16047219 89.07496201 287.8817354 89.74443817 287.59455204 C95.94224806 284.80327814 101.5084982 280.90254651 105.20703125 275.109375 C109.44563317 263.83427629 103.56867091 250.63253904 99.02978516 240.38891602 C85.66076064 211.23899971 66.66068086 183.28606215 44.703125 159.9140625 C42.63315717 157.68256538 40.64045967 155.42591104 38.66015625 153.1171875 C35.06188011 148.98771402 31.20191903 145.22155909 27.1875 141.5 C26.49043945 140.85144043 25.79337891 140.20288086 25.07519531 139.53466797 C14.3683373 127.67324627 14.3683373 127.67324627 1.26953125 127.25390625 Z " fill="#9ED76A" transform="translate(219,0)"/>
<path d="M0 0 C11.22 0 22.44 0 34 0 C34.33 77.88 34.66 155.76 35 236 C44.41991653 224.2664059 44.41991653 224.2664059 53.625 212.375 C54.71729247 210.93998583 55.80974197 209.50509118 56.90234375 208.0703125 C57.42554199 207.38227539 57.94874023 206.69423828 58.48779297 205.98535156 C60.71133935 203.06609435 62.94824333 200.15721424 65.1875 197.25 C66.38439453 195.69539063 66.38439453 195.69539063 67.60546875 194.109375 C68.79076172 192.57023437 68.79076172 192.57023437 70 191 C71.66695292 188.83355349 73.33347413 186.66677503 75 184.5 C75.83332547 183.41666062 76.6666588 182.33332728 77.5 181.25 C77.9125 180.71375 78.325 180.1775 78.75 179.625 C122.5 122.75 122.5 122.75 123.75024414 121.12475586 C124.58285808 120.04230894 125.41537775 118.9597895 126.24780273 117.87719727 C128.34137244 115.15469678 130.43660817 112.43350915 132.53515625 109.71484375 C132.95861328 109.16570312 133.38207031 108.6165625 133.81835938 108.05078125 C137.24402312 103.60871177 137.24402312 103.60871177 138.56713867 101.99658203 C140.14724341 99.90362769 140.14724341 99.90362769 141.53637695 96.95263672 C146.21312149 88.78114885 146.21312149 88.78114885 151.23251343 87.37423706 C157.82863308 86.48679977 164.43883606 86.90853528 171.0625 87.25 C173.09294131 87.31025721 175.12355425 87.36499889 177.15429688 87.4140625 C182.10713094 87.54568317 187.05166771 87.75231347 192 88 C189.20575794 92.23289812 186.28645973 96.28651804 183.125 100.25 C182.14796867 101.48400395 181.17143081 102.71839872 180.1953125 103.953125 C179.6787207 104.60603516 179.16212891 105.25894531 178.62988281 105.93164062 C175.73423653 109.60628342 172.86865647 113.30427634 170 117 C164.46586377 124.12357679 158.90691643 131.22696943 153.32666016 138.31445312 C151.04913794 141.20808827 148.77475993 144.10419323 146.5 147 C145.5833477 148.16667796 144.66668105 149.33334464 143.75 150.5 C143.29625 151.0775 142.8425 151.655 142.375 152.25 C127.25 171.5 127.25 171.5 125.87548828 173.24926758 C124.95705029 174.41826275 124.03875646 175.5873712 123.12060547 176.7565918 C120.85719671 179.6385694 118.59147818 182.51866149 116.3203125 185.39453125 C109.1176838 194.5235203 102.04314462 203.74753923 95 213 C98.6192058 217.91273241 102.33113363 222.68897776 106.3125 227.3125 C109.75211344 231.34096031 113.15782448 235.38978415 116.5 239.5 C119.78823483 243.53983137 123.12721426 247.53092065 126.5 251.5 C130.62405185 256.35316599 134.67665537 261.25812965 138.6953125 266.19921875 C141.22033075 269.26775787 143.79484769 272.29039812 146.375 275.3125 C150.15792492 279.74851603 153.80532737 284.26600643 157.375 288.875 C161.83051671 294.62027155 166.51143405 300.13095441 171.29980469 305.60058594 C175.20670573 310.06661414 178.9975073 314.61029714 182.7265625 319.2265625 C184.44902979 321.32785421 186.19039898 323.40077734 187.9609375 325.4609375 C188.46544434 326.0492334 188.96995117 326.6375293 189.48974609 327.24365234 C190.47587433 328.39046879 191.46563254 329.53417664 192.45947266 330.67431641 C194.55804663 333.11823492 195.97000279 334.91000836 197 338 C191.20203997 338.27377767 185.40790518 338.47234159 179.60498047 338.60424805 C177.63556337 338.65926781 175.66658951 338.73411716 173.69873047 338.82983398 C156.45975246 339.64678505 156.45975246 339.64678505 151.56640625 335.68261719 C149.03542979 332.91028473 147.01827296 330.1579312 145 327 C143.60244729 325.27599488 142.18819736 323.56524719 140.75 321.875 C139.61173771 320.46725512 138.47356762 319.05943476 137.33691406 317.65039062 C134.61780271 314.29370824 131.87028761 310.96027877 129.125 307.625 C128.22406616 306.53010254 128.22406616 306.53010254 127.30493164 305.41308594 C123.18875103 300.41966829 119.0280377 295.46668824 114.83691406 290.53613281 C109.74544881 284.53884721 104.79012755 278.43245907 99.828125 272.328125 C95.29181909 266.76230286 90.69238413 261.25763748 86.03588867 255.79248047 C82.43598082 251.55362242 78.96773068 247.22243872 75.55859375 242.828125 C74.11633405 240.89546127 74.11633405 240.89546127 72 240 C71.77183594 240.52851563 71.54367187 241.05703125 71.30859375 241.6015625 C69.56439957 244.79838407 67.33315943 247.5443389 65.0625 250.375 C64.06114701 251.63667835 63.05984634 252.89839822 62.05859375 254.16015625 C61.54796387 254.80098145 61.03733398 255.44180664 60.51123047 256.10205078 C59.09860275 257.87616515 57.69032888 259.65357111 56.28515625 261.43359375 C55.66460861 262.21859505 55.66460861 262.21859505 55.03152466 263.01945496 C54.13757098 264.15907181 53.25047255 265.30412546 52.3727417 266.45628357 C49.93586158 269.63777862 47.43415749 272.63482286 44.65307617 275.52197266 C33.49260359 287.65039395 33.23275556 298.62783602 33.6875 314.5625 C33.7045325 316.84566642 33.71564054 319.12888504 33.72070312 321.41210938 C33.73475792 326.94769053 33.86959856 332.46114549 34 338 C22.78 338 11.56 338 0 338 C0 226.46 0 114.92 0 0 Z " fill="#FEFEFE" transform="translate(606,251)"/>
<path d="M0 0 C1.27359375 0.31710937 2.5471875 0.63421875 3.859375 0.9609375 C27.4914222 7.41090735 48.8463687 20.64984592 66 38 C66.55042969 38.49242187 67.10085938 38.98484375 67.66796875 39.4921875 C89.01107477 58.91496265 100.62623812 92.24995183 102.12597656 120.36132812 C103.35557936 158.74361295 91.3024772 191.34921115 65.48046875 219.7734375 C43.71354526 242.52831798 10.66838825 258.98696394 -21 260 C-22.18464844 260.03996094 -23.36929688 260.07992188 -24.58984375 260.12109375 C-48.57868191 260.52208711 -71.03054941 255.96370787 -92 244 C-93.67449219 243.05833984 -93.67449219 243.05833984 -95.3828125 242.09765625 C-125.55665686 224.3205359 -147.00689557 196.9687727 -156 163 C-164.55993082 128.13158123 -159.80831437 93.25977745 -141.93945312 62.15380859 C-137.58197314 54.98822131 -132.37681823 48.4195951 -127 42 C-126.41347656 41.28972656 -125.82695313 40.57945312 -125.22265625 39.84765625 C-106.07137914 17.22222457 -76.88533006 2.98146511 -48 -2 C-46.948125 -2.18433594 -45.89625 -2.36867188 -44.8125 -2.55859375 C-29.90955469 -4.28403721 -14.55662927 -3.64280743 0 0 Z M-103.375 62.875 C-121.25818443 86.82092712 -129.26253708 115.09328425 -125.46875 144.86328125 C-122.5824518 163.65536668 -115.03046726 181.94710876 -102 196 C-101.50902832 196.5372168 -101.01805664 197.07443359 -100.51220703 197.62792969 C-82.46624973 217.1898553 -59.61166102 228.76992077 -32.796875 230.2734375 C-7.84811239 231.14625531 14.9862751 223.23619258 33.9375 206.9375 C54.66588132 187.50942304 66.98523223 162.42823393 68.25390625 134.0078125 C69.05222838 106.78478524 61.82485811 81.07095641 44.0625 60.0625 C25.70766641 40.75512016 0.34169913 27.50694071 -26.47070312 26.52929688 C-56.17633719 26.18521617 -84.29977115 40.13433501 -103.375 62.875 Z " fill="#FDFDFD" transform="translate(970,335)"/>
<path d="M0 0 C0 11.55 0 23.1 0 35 C-3.7125 35.70125 -7.425 36.4025 -11.25 37.125 C-31.02276036 41.15087666 -46.54246786 50.99785046 -59 67 C-59.57363281 67.73089844 -60.14726562 68.46179688 -60.73828125 69.21484375 C-64.29166172 74.3729767 -65.92665056 79.65505421 -67.3125 85.6875 C-67.47210205 86.38101563 -67.6317041 87.07453125 -67.79614258 87.7890625 C-70.29653675 100.00523457 -70.15198732 112.78210455 -70.20532227 125.19702148 C-70.21493527 126.64749407 -70.22494714 128.09796405 -70.23532104 129.5484314 C-70.26200639 133.43376597 -70.28320924 137.31911225 -70.30332303 141.20448565 C-70.32541108 145.28438029 -70.35268653 149.36424042 -70.37937927 153.44410706 C-70.42900139 161.14656138 -70.47405136 168.84903518 -70.51740164 176.55152708 C-70.56703705 185.33044899 -70.62185635 194.10933623 -70.67708123 202.88822448 C-70.79043244 220.92545204 -70.8966868 238.96271196 -71 257 C-82.55 257 -94.1 257 -106 257 C-106 174.5 -106 92 -106 7 C-95.11 7 -84.22 7 -73 7 C-72.67 17.23 -72.34 27.46 -72 38 C-70.02 35.03 -68.04 32.06 -66 29 C-53.04973969 12.36299891 -35.42595994 4.29876614 -15 1 C-14.20851563 0.86980469 -13.41703125 0.73960937 -12.6015625 0.60546875 C-8.32477625 -0.00901203 -4.37156423 0 0 0 Z " fill="#FEFEFE" transform="translate(570,332)"/>
<path d="M0 0 C6.45234439 3.86231882 11.52912288 9.95306959 13.80078125 17.1796875 C15.64136003 26.64060646 14.12751767 34.28175001 8.96875 42.26171875 C4.48104832 48.19007466 -1.52526389 51.4185343 -8.7421875 52.9609375 C-15.45365602 53.77183472 -21.66698294 53.39541512 -27.78125 50.328125 C-29.76125 48.678125 -31.74125 47.028125 -33.78125 45.328125 C-34.11125 53.908125 -34.44125 62.488125 -34.78125 71.328125 C-37.42125 71.328125 -40.06125 71.328125 -42.78125 71.328125 C-42.78125 47.238125 -42.78125 23.148125 -42.78125 -1.671875 C-40.14125 -1.671875 -37.50125 -1.671875 -34.78125 -1.671875 C-34.45125 0.308125 -34.12125 2.288125 -33.78125 4.328125 C-32.75 3.544375 -31.71875 2.760625 -30.65625 1.953125 C-21.9162886 -4.68924566 -9.69295416 -4.46882951 0 0 Z M-29.5703125 10.26953125 C-34.88844727 17.11253405 -35.37295674 22.77113518 -34.78125 31.328125 C-33.00684179 37.20585218 -28.64308411 40.81164575 -23.78125 44.328125 C-18.16796341 46.96293299 -12.67878776 47.1100287 -6.78125 45.265625 C-1.42821143 43.06817143 2.81963654 39.14967047 5.390625 33.96484375 C7.29148985 27.91256181 7.27019073 20.81240704 4.71875 14.953125 C1.7229171 9.80974163 -3.18740335 6.19274055 -8.78125 4.328125 C-16.90500366 3.52756123 -23.81638075 4.02563588 -29.5703125 10.26953125 Z " fill="#9FD76A" transform="translate(963.78125,638.671875)"/>
<path d="M0 0 C1.91823075 1.3146176 3.45174043 2.67987575 5.0234375 4.38671875 C5.3534375 2.07671875 5.6834375 -0.23328125 6.0234375 -2.61328125 C8.6634375 -2.61328125 11.3034375 -2.61328125 14.0234375 -2.61328125 C14.0234375 15.20671875 14.0234375 33.02671875 14.0234375 51.38671875 C11.3834375 51.38671875 8.7434375 51.38671875 6.0234375 51.38671875 C5.5284375 47.92171875 5.5284375 47.92171875 5.0234375 44.38671875 C4.53875 44.79664063 4.0540625 45.2065625 3.5546875 45.62890625 C-3.17537844 51.03884387 -9.17071971 53.14584313 -17.9765625 52.38671875 C-28.01106336 50.19417231 -34.93559951 45.74753609 -40.9765625 37.38671875 C-44.64662594 29.64848328 -44.73468426 21.61310591 -41.921875 13.60546875 C-38.7236305 6.0988453 -33.69127516 1.4356541 -26.4140625 -1.92578125 C-17.1754577 -5.31558512 -8.57042834 -4.74078511 0 0 Z M-31.3515625 10.76171875 C-35.41547776 15.95204531 -36.5425068 20.82176488 -35.9765625 27.38671875 C-34.56170644 33.89505665 -31.27003047 38.39284471 -25.9765625 42.38671875 C-21.16321053 45.05344813 -16.46629211 46.14392283 -10.9765625 45.38671875 C-3.09232275 42.78378792 1.285465 38.75231769 5.0234375 31.38671875 C7.19062328 24.88516142 6.29173453 19.53407277 3.36328125 13.5 C0.43417653 8.88004183 -3.92601161 5.45370347 -8.9765625 3.38671875 C-18.11025128 2.16700255 -25.07656423 3.94238329 -31.3515625 10.76171875 Z " fill="#A0D66B" transform="translate(1027.9765625,639.61328125)"/>
<path d="M0 0 C2.64 0 5.28 0 8 0 C12.00439072 7.54338009 15.06001591 15.44228159 18.1875 23.375 C19.00535599 25.44093455 19.82420958 27.50646855 20.64387512 29.57168579 C21.38053954 31.42906582 22.11453582 33.28750342 22.84838867 35.14599609 C23.91006358 37.88682357 23.91006358 37.88682357 25 40 C25.37286133 39.10804932 25.74572266 38.21609863 26.12988281 37.29711914 C27.53040364 33.94757532 28.93225054 30.59858778 30.33447266 27.24975586 C30.9380175 25.807847 31.54121573 24.365793 32.14404297 22.92358398 C35.35285025 15.2474571 38.57671914 7.58375338 42 0 C44.97 0 47.94 0 51 0 C45.35472173 14.35119057 39.39398045 28.54336981 33.25 42.6875 C32.40470478 44.63986871 31.55965189 46.59234235 30.71484375 48.54492188 C27.17802884 56.7124035 23.62807746 64.87255979 20 73 C17.36 73 14.72 73 12 73 C12.73325945 66.84250075 15.19987459 61.90072696 17.8203125 56.33984375 C19.55322283 51.43375655 18.14131276 48.02938776 16.23413086 43.34912109 C15.87383286 42.45824799 15.51353485 41.56737488 15.14231873 40.64950562 C14.75375198 39.70040314 14.36518524 38.75130066 13.96484375 37.7734375 C13.14776831 35.7526115 12.33071158 33.73177794 11.51367188 31.7109375 C10.22238618 28.53261552 8.9293591 25.35500878 7.63549805 22.17773438 C6.38684107 19.10718089 5.14436714 16.03417891 3.90234375 12.9609375 C3.51175278 12.00778656 3.1211618 11.05463562 2.71873474 10.07260132 C2.3615889 9.18803253 2.00444305 8.30346375 1.63647461 7.39208984 C1.16134682 6.22557388 1.16134682 6.22557388 0.67662048 5.03549194 C0 3 0 3 0 0 Z " fill="#9FD66C" transform="translate(1048,637)"/>
</svg>
