<?xml version="1.0" encoding="utf-8"?>
<!-- Generator: Adobe Illustrator 25.0.1, SVG Export Plug-In . SVG Version: 6.00 Build 0)  -->
<svg version="1.0" id="Capa_1" xmlns="http://www.w3.org/2000/svg" xmlns:xlink="http://www.w3.org/1999/xlink" x="0px" y="0px"
	 viewBox="0 0 360 248" style="enable-background:new 0 0 360 248;" xml:space="preserve">
<style type="text/css">
	.st0{fill:#FFFFFF;}
</style>
<g>
	<path d="M257,224H103c-12.7,0-23-10.3-23-23V47c0-12.7,10.3-23,23-23h154c12.7,0,23,10.3,23,23v154C280,213.7,269.7,224,257,224z"
		/>
	<g>
		<g>
			<path class="st0" d="M180.3,71.3c3.3,0,14-2.1,22.3-14.2c7.1-10.5,6.3-22.2,6.3-22.2s-12.3-0.9-23.1,12.5
				c-7.8,9.8-7.2,23.8-7.2,23.8S179.2,71.3,180.3,71.3z"/>
			<path class="st0" d="M242,148.2c0.6-1.7,1-2.7,1-2.7s0,0-0.1,0l0,0c0,0-0.1,0-0.2-0.1l0,0c-0.6-0.2-2-0.8-3.8-1.9l0,0
				c-3.6-2.1-8.6-6-12.2-12.3l0,0c-2.3-4-3.9-9-4.3-15.2c-0.2-3.1,0.1-6.1,0.7-8.8v-0.1c0.2-0.9,0.4-1.7,0.7-2.6l0,0
				c3.2-10.4,10.7-17.2,13.7-19.5l0,0c0.8-0.6,1.2-0.9,1.2-0.9s-9.6-14.9-27.7-14.9c-15.6,0-21.4,7-29.7,7
				c-10.2,0-11.8-6.5-26.9-6.5c-7.8,0-18.7,3-26.8,13.5c-6.4,8.2-8.8,17.9-9.8,25l0,0c-0.6,4.8-0.8,10-0.2,15.8l0,0
				c0,0.4,0.1,0.8,0.1,1.3c0.6,5.8,2.1,12,4.2,18.2l0,0c0,0.1,0.1,0.3,0.2,0.4c0.2,0.7,0.5,1.5,0.8,2.2c0.1,0.3,0.3,0.7,0.4,1
				s0.2,0.7,0.4,1l0,0c2,5.2,4.3,10.2,7,14.9l0,0c7.8,13.8,17.9,24.2,27.4,24.2c10.8,0,14.2-7,25-6.9c13.7,0.1,17.5,8.8,29,6.5
				c7.7-1.5,16.9-12.4,22.8-22.8c0.2-0.4,0.4-0.7,0.6-1l0,0C238.3,157,240.7,151.4,242,148.2L242,148.2z"/>
		</g>
	</g>
</g>
</svg>
